PathFileType	4	(X/Y/Z)	C:/Users/beibeiliu/ov580/test_trc/capture2\sequence.17_training_dense_left.trc
DataRate	CameraRate	NumFrames	NumMarkers	Units	OrigDataRate	OrigDataStartFrame	OrigNumFrames
120	120	22	19	mm	120	251	400
Frame#	Time	ThumbCMC			ThumbMCP			ThumbIP			ThumbTip			IndexMCP			IndexPIP			IndexTip			MiddleMCP			MiddlePIP			MiddleTip			RingMCP			RingPIP			RingTip			PinkyMCP			PinkyPIP			PinkyTip			BackHand1			BackHand2			BackHand3	
		X0	Y0	Z0	X1	Y1	Z1	X2	Y2	Z2	X3	Y3	Z3	X4	Y4	Z4	X5	Y5	Z5	X6	Y6	Z6	X7	Y7	Z7	X8	Y8	Z8	X9	Y9	Z9	X10	Y10	Z10	X11	Y11	Z11	X12	Y12	Z12	X13	Y13	Z13	X14	Y14	Z14	X15	Y15	Z15	X16	Y16	Z16	X17	Y17	Z17	X18	Y18	Z18	
250	2.08333	-132.306	67.1018	38.7747	-105.095	54.9408	30.2077	-83.6257	63.1668	12.5429	-82.5223	76.793	-6.79922	-70.8446	99.9073	19.3651	-51.6092	109.049	-3.18199	-55.4507	87.8171	-34.0879	-71.6641	121.268	3.5533	-53.8437	115.252	-20.8854	-69.6815	92.6945	-42.3994	-86.4988	128.337	-4.77016	-71.0407	125.231	-33.1967	-85.8456	97.7191	-42.6882	-107.124	135.712	-11.6022	-86.2877	134.413	-34.3539	-90.4711	107.394	-49.2747	-127.426	123.251	23.0701	-153.067	117.313	35.9998	-128.863	98.0572	43.0512	
251	2.09167	-137.292	63.3102	40.9131	-111.858	52.4147	29.9294	-89.3004	60.0437	11.281	-89.3675	78.1645	-9.55153	-72.868	99.0033	16.7523	-51.8544	102.299	-4.387	-54.4692	85.7167	-30.568	-72.8451	114.858	3.88842	-55.6574	113.172	-21.3762	-70.2644	87.577	-42.3768	-84.4163	127.518	-6.77422	-68.6189	118.948	-31.4656	-88.8799	93.4383	-43.6198	-107.766	132.104	-13.7602	-84.9652	130.814	-34.4469	-91.297	99.5486	-48.5209	-126.025	122.652	20.8633	-154.278	119.828	35.4809	-129.642	101.312	41.9291	
252	2.1	-140.925	66.4429	38.1256	-110.285	54.4292	28.2265	-91.3106	58.6691	11.2618	-89.2072	76.0133	-12.1461	-76.5937	95.0149	17.3922	-53.7106	100.405	-7.5625	-57.194	82.6394	-34.2757	-73.2812	115.049	1.76369	-55.0776	108.928	-21.4694	-72.9683	81.1886	-43.6308	-86.0186	124.889	-7.9125	-69.6006	118.296	-31.167	-88.5023	93.8687	-46.8064	-105.745	135.829	-17.1874	-84.2867	124.25	-35.6933	-92.4359	97.5755	-47.3986	-129.357	121.911	18.7531	-154.186	121.156	34.0904	-130.244	99.8879	42.0918	
253	2.10833	-141.7	64.1317	38.7946	-114.929	56.1498	25.5524	-90.9021	60.1762	8.32859	-87.7081	77.8235	-15.1445	-76.1119	99.6877	12.534	-53.3552	99.4475	-5.19878	-54.3221	82.0626	-33.7123	-72.5897	113.82	-0.409949	-54.5357	108.499	-22.6907	-72.9213	83.8225	-45.1539	-84.1851	126.939	-12.04	-70.8915	118.291	-36.822	-91.7683	91.1613	-47.4508	-105.362	135.271	-18.5731	-84.8864	124.6	-39.0008	-93.0705	99.6376	-53.596	-126.468	125.799	15.6554	-152.044	124.909	30.199	-129.043	98.0027	39.2132	
254	2.11667	-137.373	71.2249	33.6563	-111.438	58.5777	22.7752	-91.7808	64.4065	5.83711	-89.5876	85.1792	-18.3399	-75.6606	98.6431	11.2839	-52.2049	99.9616	-9.60695	-57.9902	81.226	-38.4957	-78.042	117.927	-2.97532	-56.4289	111.79	-28.1835	-77.5041	82.9827	-48.64	-87.8713	129.514	-13.4821	-70.8308	117.69	-39.6465	-93.0865	94.3764	-50.0601	-107.815	138.784	-22.434	-86.4321	128.924	-39.9856	-95.4021	100.082	-53.0223	-127.034	127.079	14.1224	-153.377	124.567	27.739	-131.208	101.648	37.9322	
255	2.125	-136.052	76.6105	29.7724	-111.7	65.7684	19.7927	-89.2847	71.3124	2.46994	-89.4435	91.9085	-21.1057	-76.3521	106.746	6.35949	-53.8945	108.373	-18.9421	-60.5344	91.2806	-43.9077	-74.9565	122.051	-8.0744	-61.1123	120.582	-34.9511	-80.4895	92.9104	-53.6743	-89.6788	133.912	-17.3438	-75.8471	126.185	-47.1668	-94.6327	97.7575	-53.3654	-107.891	143.371	-24.9613	-91.9828	137.556	-47.861	-101.069	105.614	-58.711	-129.323	131.526	10.1574	-154.412	128.658	26.2129	-132.203	109.775	34.2824	
256	2.13333	-133.676	80.2344	30.2447	-106.003	73.173	17.3018	-88.3911	83.7058	-1.53441	-84.6213	100.022	-26.2712	-77.0138	115.532	-0.401744	-53.72	116.842	-26.5803	-64.6983	98.5884	-51.3857	-83.07	136.317	-17.2384	-65.1843	132.005	-44.3023	-81.9155	102.84	-60.3347	-92.0837	144.169	-26.3582	-81.1896	137.313	-53.3142	-98.0131	108.73	-59.313	-116.357	150.797	-30.8859	-95.5382	143.794	-50.9678	-103.049	115.253	-62.6532	-132.886	138.614	4.40686	-156.094	134.157	24.0365	-131.763	117.657	29.9069	
257	2.14167	-127.833	86.7842	28.6468	-99.5749	84.2997	14.9411	-85.4823	92.1618	-3.54167	-83.934	105.616	-28.8528	-76.0446	132.38	-9.83779	-62.8901	134.94	-38.1947	-69.9294	115.066	-58.9615	-84.6884	147.206	-23.1762	-74.2008	143.402	-56.417	-85.9786	112.242	-66.2393	-104.909	154.244	-31.3622	-90.6823	149.972	-60.681	-100.213	118.03	-64.9462	-125.708	156.876	-37.8181	-106.998	151.238	-60.5391	-111.52	121.376	-71.1267	-136.931	144.34	-0.882907	-160.122	138.326	21.1046	-128.232	125.139	21.6492	
258	2.15	-123.61	97.7005	24.805	-100.189	93.4238	12.9699	-76.891	102.68	-8.28313	-80.2383	114.34	-32.5561	-84.9966	146.068	-18.7354	-71.1966	151.365	-45.2807	-74.848	128.511	-66.9617	-98.5758	161.094	-32.6234	-82.4044	155.514	-63.0593	-96.3754	122.883	-73.7744	-113.05	163.646	-40.7106	-99.5304	156.565	-67.9841	-110.816	122.432	-71.5298	-134.027	162.067	-42.7688	-119.462	157.828	-69.9203	-118.939	130.18	-74.72	-147.196	149.967	-3.61761	-161.174	139.428	18.475	-131.806	131.466	19.2406	
259	2.15833	-117.306	107.573	21.1586	-93.1061	107.209	8.18802	-78.3167	118.584	-15.5378	-81.5329	124.523	-41.2805	-94.9773	158.673	-26.3635	-77.4042	164.37	-51.3745	-79.2056	139.239	-73.743	-108.976	169.561	-39.7938	-96.962	169.185	-69.2524	-99.5392	129.519	-78.9399	-127.778	170.053	-48.8787	-115.835	165.572	-74.8061	-114.377	128.881	-75.9666	-148.595	159.987	-46.167	-135.239	161.78	-75.2054	-124.053	131.528	-78.1101	-156.779	152.657	-6.88167	-166.763	139.145	15.3848	-130.741	138.729	17.3917	
260	2.16667	-116.46	116.058	16.69	-90.97	119.957	3.1961	-80.5339	129.439	-21.0812	-90.2396	131.136	-45.606	-103.741	168.003	-36.2351	-94.8305	172.785	-62.0773	-87.4696	145.18	-81.2589	-119.181	172.734	-47.0184	-108.187	172.999	-77.469	-104.446	133.727	-84.6452	-136.64	167.61	-51.9537	-125.268	167.068	-80.9425	-120.921	132.693	-83.0987	-156.624	161.726	-55.0403	-144.626	162.106	-78.8122	-127.909	130.548	-83.3245	-162.301	149.82	-12.8138	-170.841	137.972	11.3387	-138.763	142.455	10.1469	
261	2.175	-115.991	120.631	15.4759	-90.8238	128.576	-2.91826	-86.3354	137.943	-31.9186	-100.337	134.547	-53.8345	-108.374	170.967	-43.2465	-100.018	173.861	-73.7492	-97.7515	143.922	-88.1437	-127.833	173.152	-56.4419	-119.564	168.212	-88.2208	-112.452	134.348	-90.5156	-147.557	163.739	-59.511	-136.441	160.255	-91.4512	-123.329	129.374	-87.9831	-164.006	151.282	-57.1664	-152.764	153.47	-84.6297	-133.195	126.717	-85.7961	-162.62	147.104	-20.1777	-172.739	136.606	5.56302	-136.044	145.842	7.91443	
262	2.18333	-114.423	126.139	11.6004	-95.2529	134.64	-9.57552	-87.8052	139.989	-33.0881	-106.418	131.719	-60.6982	-120.513	168.457	-53.6432	-109.314	169.82	-83.4853	-102.435	137.974	-94.49	-135.577	165.495	-63.1849	-125.32	162.349	-95.0281	-115.227	125.64	-93.7993	-153.357	156.823	-67.5589	-141.275	149.825	-96.9365	-125.041	123.098	-91.7404	-170.385	143.178	-63.7902	-155.864	139.337	-91.8308	-136.323	118.197	-91.6987	-163.656	141.884	-19.0879	-173.895	130.925	7.32807	-142.019	144.226	1.40315	
263	2.19167	-110.559	129.703	10.3716	-91.7917	138.738	-14.616	-88.8073	140.584	-42.4845	-106.658	126.603	-60.7766	-122.757	163.144	-59.7264	-117.471	160.839	-91.1453	-103.758	134.366	-99.5862	-140.81	156.656	-69.3083	-131.77	149.141	-102.056	-114.048	114.752	-95.6993	-154.419	146.549	-70.0336	-148.119	138.525	-99.3044	-125.601	112.925	-92.9545	-169.496	128.469	-64.4385	-156.269	126.51	-91.9612	-134.61	103.655	-88.9038	-166.996	132.863	-24.9359	-172.049	125.249	5.27752	-139.096	145.282	-4.8532	
264	2.2	-113.423	127.538	6.64948	-92.6879	134.487	-13.2744	-88.635	137.085	-47.0111	-102.891	121.536	-63.186	-128.876	152.83	-64.6046	-121.827	153.595	-92.9126	-107.996	124.973	-104.313	-146.326	146.749	-77.0926	-133.81	138.417	-104.392	-113.91	108.329	-100.201	-159.031	133.313	-72.0154	-146.929	126.366	-101.125	-126.329	102.652	-93.9867	-171.546	117.972	-68.2009	-160.783	113.063	-93.0498	-136.696	95.1449	-89.1131	-163.722	127.061	-25.4357	-169.794	121.854	1.85963	-142.74	141.482	-4.90936	
265	2.20833	-110.385	130.104	1.22234	-93.8807	132.508	-16.8843	-86.5799	135.522	-45.2343	-102.563	117.41	-63.5601	-128.763	144.385	-64.8231	-123.169	140.555	-99.2216	-109.749	115.487	-105.747	-144.993	138.198	-75.9833	-140.308	127.589	-105.842	-115.988	98.0569	-102.573	-157.838	126.574	-76.0454	-150.611	112.548	-103.072	-127.63	92.4005	-95.979	-170.546	107.86	-66.1715	-157.076	99.7825	-93.6302	-133.137	82.5525	-87.1189	-166.412	122.413	-25.0523	-170.048	120.496	0.242018	-140.637	140.447	-8.3231	
266	2.21667	-110.65	130.928	-0.427856	-95.4095	133.753	-21.1664	-88.5045	134.476	-47.5266	-102.41	114.814	-65.1207	-130.615	139.789	-68.0267	-126.139	136.865	-99.6511	-108.636	110.697	-108.155	-148.655	130.233	-78.5875	-139.056	118.939	-108.26	-112.77	89.7365	-102.518	-158.231	118.913	-75.4847	-150.119	104.985	-102.831	-122.964	80.8803	-93.2122	-168.466	101.815	-68.2587	-157.209	89.908	-94.1571	-130.074	76.6657	-88.0661	-165.069	120.042	-29.1836	-170.332	114.843	1.26341	-141.79	137.514	-9.72246	
267	2.225	-110.672	132.962	-0.931737	-93.2355	137.894	-23.9462	-88.888	132.866	-47.6635	-99.4532	112.643	-68.4559	-130.157	136.308	-70.4812	-124.483	126.15	-103.439	-105.959	98.4526	-106.84	-146.564	124.062	-83.5463	-137.471	110.508	-108.031	-108.882	85.2863	-102.73	-158.957	107.802	-75.1325	-144.498	93.8581	-103.241	-120.708	74.7394	-94.485	-164.651	94.4121	-65.0977	-154.625	82.7954	-91.0213	-127.048	68.4645	-87.2957	-167.218	112.637	-28.6766	-169.159	112.649	2.74474	-143.163	134.645	-11.7104	
268	2.23333	-110.935	135.646	-1.30367	-95.7933	136.283	-25.1222	-88.0758	133.122	-54.9127	-95.8065	111.253	-67.2925	-128.397	130.099	-77.7464	-125.881	118.53	-102.956	-102.707	89.2408	-106.685	-145.436	113.543	-83.4539	-132.373	94.5066	-108.244	-107.253	76.2208	-99.8845	-156.14	97.6779	-76.6758	-141.243	83.9174	-99.9613	-116.911	67.4435	-91.065	-165.339	83.1596	-64.124	-150.72	73.2306	-87.5863	-120.527	61.1868	-79.6563	-165.206	109.105	-28.3988	-166.92	113.598	2.92527	-144.977	132.954	-17.9758	
269	2.24167	-109.854	138.032	-1.45417	-92.8904	138.085	-28.5239	-87.4519	129.709	-52.612	-94.4577	103.29	-69.9005	-127.019	120.821	-74.9675	-124.221	104.902	-102.664	-100.767	81.7725	-104.871	-143.531	103.312	-79.6376	-131.87	85.5603	-104.414	-103.596	65.2919	-92.0531	-150.437	91.8463	-77.7767	-134.558	71.1981	-97.401	-109.007	55.1371	-80.3308	-160.926	76.3168	-58.8482	-147.314	61.5667	-82.6974	-119.883	50.6067	-75.715	-161.585	104.677	-26.7588	-165.44	115.585	0.0456392	-140.819	133.311	-15.674	
270	2.25	-113.565	133.17	-4.20013	-92.869	134.906	-30.0482	-85.0543	124.723	-54.145	-89.5277	100.637	-66.8808	-126.615	111.9	-76.3882	-121.668	91.2296	-99.4745	-98.8244	69.1998	-98.8784	-138.293	94.1797	-83.0884	-126.102	71.7242	-99.7577	-96.1043	56.2358	-78.4713	-148.178	81.6446	-73.5564	-135.792	58.1834	-90.3639	-103.833	49.2506	-71.321	-158.349	68.5462	-54.2692	-145.776	53.5581	-76.0326	-112.769	41.1237	-65.3476	-161.328	100.881	-27.1552	-165.281	111.274	0.339057	-143.91	130.083	-19.3906	
271	2.25833	-113.474	132.191	-6.12773	-91.5387	129.415	-29.2581	-82.0543	116.071	-50.1532	-88.3435	89.4998	-57.0232	-121.701	99.117	-76.6828	-111.619	77.1195	-94.7656	-90.4777	52.4195	-84.1741	-134.793	78.1563	-78.6556	-117.395	57.7807	-91.2384	-92.8422	44.7015	-67.6216	-144.302	69.4722	-66.2088	-126.26	46.302	-80.803	-103.291	36.6699	-58.4166	-154.63	59.364	-50.579	-138.746	36.3824	-65.7569	-110.771	34.4969	-49.1387	-161.781	93.2757	-28.4907	-167.167	110.692	-1.64903	-142.052	122.743	-21.8011	
